<svg width="40" height="40" viewBox="0 0 40 40" fill="none" xmlns="http://www.w3.org/2000/svg">
<path fill-rule="evenodd" clip-rule="evenodd" d="M11.9003 30.4768C11.3732 29.0488 10.9544 27.4682 10.6623 25.7753C9.27568 24.6374 8.04973 23.4383 7.01073 22.2166C5.67258 24.5569 5.29348 26.7337 6.15561 28.2745C7.03394 29.8443 9.14655 30.5734 11.9003 30.4768ZM12.9884 32.9233C8.79455 33.2939 5.40194 32.178 3.88977 29.4754C2.43749 26.8799 3.11505 23.4503 5.35834 20.0172C3.11505 16.5842 2.43749 13.1546 3.88977 10.559C5.40195 7.85639 8.79461 6.74057 12.9885 7.11111C14.7223 3.85651 17.1392 1.85205 19.891 1.85205C22.6429 1.85205 25.0597 3.85651 26.7936 7.11111C30.9874 6.74058 34.38 7.8564 35.8922 10.559C37.3445 13.1546 36.6669 16.5842 34.4236 20.0172C36.6669 23.4503 37.3445 26.8799 35.8922 29.4754C34.3801 32.178 30.9875 33.2938 26.7937 32.9233C25.0598 36.1781 22.6429 38.1826 19.891 38.1826C17.1391 38.1826 14.7222 36.1781 12.9884 32.9233ZM32.7713 17.8179C34.1096 15.4776 34.4887 13.3007 33.6266 11.7599C32.7482 10.19 30.6355 9.46093 27.8816 9.55758C28.4087 10.9856 28.8276 12.5662 29.1197 14.2591C30.5064 15.397 31.7323 16.5962 32.7713 17.8179ZM24.1203 7.52603C22.9114 5.55744 21.434 4.38678 19.8911 4.38678C18.3482 4.38678 16.8708 5.55746 15.6619 7.52608C17.0279 7.82393 18.4478 8.25821 19.891 8.82607C21.3343 8.25818 22.7543 7.82388 24.1203 7.52603ZM23.2179 10.356C23.9226 10.1526 24.6114 9.98752 25.2785 9.86091C25.5451 10.5241 25.7874 11.235 26.0016 11.9865C25.6276 11.7445 25.2458 11.5073 24.8566 11.2754C24.3114 10.9506 23.7647 10.6441 23.2179 10.356ZM16.5641 10.356C15.8596 10.1526 15.1708 9.98752 14.5038 9.86092C14.2372 10.524 13.9949 11.2349 13.7807 11.9863C14.1546 11.7443 14.5363 11.5072 14.9254 11.2754C15.4706 10.9506 16.0173 10.6441 16.5641 10.356ZM13.0178 15.6338C14.022 14.8546 15.1109 14.1089 16.2724 13.4169C17.4788 12.6982 18.6936 12.0789 19.8911 11.5596C21.0886 12.0789 22.3033 12.6982 23.5098 13.4169C24.6713 14.1089 25.7602 14.8546 26.7644 15.6339C26.9602 17.0264 27.0664 18.4977 27.0664 20.0174C27.0664 21.5368 26.9602 23.008 26.7645 24.4004C25.7603 25.1797 24.6714 25.9254 23.5098 26.6174C22.3033 27.3361 21.0886 27.9555 19.8911 28.4748C18.6936 27.9555 17.4788 27.3361 16.2724 26.6174C15.1108 25.9254 14.022 25.1797 13.0178 24.4004C12.822 23.0081 12.7158 21.5369 12.7158 20.0174C12.7158 18.4977 12.822 17.0264 13.0178 15.6338ZM10.6624 14.2591C10.9544 12.5662 11.3733 10.9856 11.9004 9.55758C9.14661 9.46095 7.03396 10.19 6.15561 11.7599C5.29347 13.3007 5.67258 15.4775 7.01077 17.8178C8.04977 16.5961 9.27572 15.397 10.6624 14.2591ZM8.51536 20.0172C9.0273 19.3726 9.60234 18.7268 10.235 18.0889C10.2008 18.7224 10.1833 19.3657 10.1833 20.0173C10.1833 20.6688 10.2007 21.3121 10.235 21.9454C9.60233 21.3075 9.0273 20.6617 8.51536 20.0172ZM19.891 31.2084C21.3343 31.7763 22.7544 32.2106 24.1204 32.5084C22.9115 34.4772 21.4341 35.648 19.8911 35.648C18.3482 35.648 16.8707 34.4772 15.6618 32.5084C17.0278 32.2105 18.4477 31.7763 19.891 31.2084ZM16.564 29.6784C15.8594 29.8818 15.1706 30.0469 14.5036 30.1734C14.2371 29.5104 13.9948 28.7995 13.7806 28.048C14.1545 28.29 14.5363 28.5272 14.9254 28.7591C15.4705 29.0838 16.0173 29.3903 16.564 29.6784ZM23.2181 29.6784C23.7648 29.3903 24.3115 29.0838 24.8566 28.7591C25.2458 28.5272 25.6277 28.2899 26.0017 28.0478C25.7875 28.7994 25.5452 29.5103 25.2786 30.1735C24.6116 30.0469 23.9227 29.8818 23.2181 29.6784ZM29.1197 25.7753C28.8277 27.4681 28.4088 29.0487 27.8817 30.4768C30.6356 30.5734 32.7482 29.8443 33.6266 28.2745C34.4887 26.7336 34.1096 24.5568 32.7714 22.2165C31.7324 23.4382 30.5064 24.6374 29.1197 25.7753ZM29.5471 21.9455C30.1798 21.3076 30.7548 20.6618 31.2668 20.0172C30.7548 19.3726 30.1798 18.7267 29.5471 18.0888C29.5813 18.7223 29.5988 19.3657 29.5988 20.0173C29.5988 20.6689 29.5813 21.3122 29.5471 21.9455Z" fill="#1CD1A1"/>
<path opacity="0.3" fill-rule="evenodd" clip-rule="evenodd" d="M19.9674 24.3024C17.6102 24.3024 15.6992 22.4048 15.6992 20.0639C15.6992 17.723 17.6102 15.8253 19.9674 15.8253C22.3247 15.8253 24.2356 17.723 24.2356 20.0639C24.2356 22.4048 22.3247 24.3024 19.9674 24.3024Z" fill="#1CD1A1"/>
</svg>
