<svg width="32" height="33" viewBox="0 0 32 33" fill="none" xmlns="http://www.w3.org/2000/svg">
<path fill-rule="evenodd" clip-rule="evenodd" d="M11.8895 6.41733C10.1221 6.41733 8.68945 4.98465 8.68945 3.21733C8.68945 1.45002 10.1221 0.017334 11.8895 0.017334C13.6568 0.017334 15.0895 1.45002 15.0895 3.21733C15.0895 4.98465 13.6568 6.41733 11.8895 6.41733ZM8.68945 20.8173C8.68945 22.5846 10.1221 24.0173 11.8895 24.0173C13.6568 24.0173 15.0895 22.5846 15.0895 20.8173C15.0895 19.05 13.6568 17.6173 11.8895 17.6173C10.1221 17.6173 8.68945 19.05 8.68945 20.8173ZM16.6895 28.8173C16.6895 30.5846 18.1221 32.0173 19.8895 32.0173C21.6568 32.0173 23.0895 30.5846 23.0895 28.8173C23.0895 27.05 21.6568 25.6173 19.8895 25.6173C18.1221 25.6173 16.6895 27.05 16.6895 28.8173ZM27.8895 24.0173C26.1221 24.0173 24.6895 22.5846 24.6895 20.8173C24.6895 19.05 26.1221 17.6173 27.8895 17.6173C29.6568 17.6173 31.0895 19.05 31.0895 20.8173C31.0895 22.5846 29.6568 24.0173 27.8895 24.0173ZM0.689453 28.8173C0.689453 30.5846 2.12214 32.0173 3.88945 32.0173C5.65676 32.0173 7.08945 30.5846 7.08945 28.8173C7.08945 27.05 5.65676 25.6173 3.88945 25.6173C2.12214 25.6173 0.689453 27.05 0.689453 28.8173ZM16.6895 11.2173C16.6895 12.9846 18.1221 14.4173 19.8895 14.4173C21.6568 14.4173 23.0895 12.9846 23.0895 11.2173C23.0895 9.45002 21.6568 8.01733 19.8895 8.01733C18.1221 8.01733 16.6895 9.45002 16.6895 11.2173ZM27.8895 6.41733C26.1221 6.41733 24.6895 4.98465 24.6895 3.21733C24.6895 1.45002 26.1221 0.017334 27.8895 0.017334C29.6568 0.017334 31.0895 1.45002 31.0895 3.21733C31.0895 4.98465 29.6568 6.41733 27.8895 6.41733ZM0.689453 11.2173C0.689453 12.9846 2.12214 14.4173 3.88945 14.4173C5.65676 14.4173 7.08945 12.9846 7.08945 11.2173C7.08945 9.45002 5.65676 8.01733 3.88945 8.01733C2.12214 8.01733 0.689453 9.45002 0.689453 11.2173Z" fill="#1CD1A1"/>
</svg>
