<svg width="38" height="38" viewBox="0 0 38 38" fill="none" xmlns="http://www.w3.org/2000/svg">
<path fill-rule="evenodd" clip-rule="evenodd" d="M32.5647 8.15622L19.1436 3.3097C18.98 3.25061 18.8008 3.25061 18.6371 3.3097L5.21601 8.15622C4.92053 8.26292 4.72363 8.54336 4.72363 8.85751V18.9233C4.72363 26.8277 9.44433 32.073 18.6971 34.5558C18.8254 34.5903 18.9605 34.5898 19.0885 34.5545C28.3382 32.0047 33.0571 26.7615 33.0571 18.9233V8.85751C33.0571 8.54336 32.8602 8.26292 32.5647 8.15622ZM13.7431 17.6191C14.0414 17.3352 14.5134 17.347 14.7972 17.6453L17.8135 20.8151L24.1475 13.9443C24.4266 13.6415 24.8983 13.6223 25.2011 13.9014C25.5039 14.1805 25.5231 14.6523 25.244 14.955L18.3704 22.4112C18.0782 22.7281 17.5791 22.732 17.282 22.4198L13.7169 18.6732C13.4331 18.3749 13.4448 17.903 13.7431 17.6191Z" fill="#1CD1A1"/>
</svg>
