<svg width="41" height="41" viewBox="0 0 41 41" fill="none" xmlns="http://www.w3.org/2000/svg">
<path fill-rule="evenodd" clip-rule="evenodd" d="M21.1903 11.0027H13.3501V8.62175H21.1903L20.048 7.47941C19.5831 7.0145 19.5831 6.26074 20.048 5.79583C20.5129 5.33092 21.2666 5.33092 21.7316 5.79583L24.9062 8.97043C25.3711 9.43534 25.3711 10.1891 24.9062 10.654L21.7316 13.8286C21.2666 14.2935 20.5129 14.2935 20.048 13.8286C19.5831 13.3637 19.5831 12.6099 20.048 12.145L21.1903 11.0027ZM34.3337 20.0815L33.1914 21.2239V13.3837H30.8104V21.2239L29.6681 20.0815C29.2032 19.6166 28.4494 19.6166 27.9845 20.0815C27.5196 20.5464 27.5196 21.3002 27.9845 21.7651L31.1591 24.9397C31.3915 25.1722 31.6962 25.2884 32.0009 25.2884C32.3055 25.2884 32.6102 25.1722 32.8427 24.9397L36.0173 21.7651C36.4822 21.3002 36.4822 20.5464 36.0173 20.0815C35.5524 19.6166 34.7986 19.6166 34.3337 20.0815ZM21.7316 34.3673L20.5892 33.2249H28.4294V30.844H20.5892L21.7316 29.7016C22.1965 29.2367 22.1965 28.483 21.7316 28.018C21.2666 27.5531 20.5129 27.5531 20.048 28.018L16.8734 31.1926C16.4085 31.6576 16.4085 32.4113 16.8734 32.8762L20.048 36.0508C20.5129 36.5158 21.2666 36.5158 21.7316 36.0508C22.1965 35.5859 22.1965 34.8322 21.7316 34.3673ZM7.44584 21.7651L8.58818 20.6228V28.463H10.9691V20.6228L12.1115 21.7651C12.5764 22.23 13.3301 22.23 13.7951 21.7651C14.26 21.3002 14.26 20.5464 13.7951 20.0815L10.6204 16.9069C10.1555 16.442 9.40177 16.442 8.93686 16.9069L5.76226 20.0815C5.29735 20.5464 5.29735 21.3002 5.76226 21.7651C6.22717 22.23 6.98093 22.23 7.44584 21.7651Z" fill="#B4CCEF"/>
<path fill-rule="evenodd" clip-rule="evenodd" d="M15.3343 12.9868V6.63761C15.3343 5.32264 14.2683 4.25665 12.9533 4.25665H6.6041C5.28913 4.25665 4.22314 5.32264 4.22314 6.63761V12.9868C4.22314 14.3018 5.28913 15.3678 6.6041 15.3678H12.9533C14.2683 15.3678 15.3343 14.3018 15.3343 12.9868ZM12.9533 26.4789H6.6041C5.28913 26.4789 4.22314 27.5449 4.22314 28.8598V35.209C4.22314 36.524 5.28913 37.59 6.6041 37.59H12.9533C14.2683 37.59 15.3343 36.524 15.3343 35.209V28.8598C15.3343 27.5449 14.2683 26.4789 12.9533 26.4789ZM35.1755 15.3678H28.8263C27.5114 15.3678 26.4454 14.3018 26.4454 12.9868V6.63761C26.4454 5.32264 27.5114 4.25665 28.8263 4.25665H35.1755C36.4905 4.25665 37.5565 5.32264 37.5565 6.63761V12.9868C37.5565 14.3018 36.4905 15.3678 35.1755 15.3678ZM26.4454 28.8598V35.209C26.4454 36.524 27.5114 37.59 28.8263 37.59H35.1755C36.4905 37.59 37.5565 36.524 37.5565 35.209V28.8598C37.5565 27.5449 36.4905 26.4789 35.1755 26.4789H28.8263C27.5114 26.4789 26.4454 27.5449 26.4454 28.8598Z" fill="#1CD1A1"/>
</svg>
